<?xml version="1.0" standalone="no"?><!DOCTYPE svg PUBLIC "-//W3C//DTD SVG 1.1//EN" "http://www.w3.org/Graphics/SVG/1.1/DTD/svg11.dtd"><svg t="1677568876414" class="icon" viewBox="0 0 1024 1024" version="1.1" xmlns="http://www.w3.org/2000/svg" p-id="5047" xmlns:xlink="http://www.w3.org/1999/xlink" width="32" height="32"><path d="M861.448 233.721H732.883V97.55c0-15.378-12.443-27.822-27.821-27.822S677.24 82.17 677.24 97.55V233.72H348.604V94.751c0-15.377-12.443-27.822-27.822-27.822s-27.821 12.444-27.821 27.822v138.97H162.55c-52.763 0-95.69 42.927-95.69 95.69v531.97c0 52.763 42.927 95.69 95.69 95.69h698.897c52.763 0 95.69-42.927 95.69-95.69v-531.97c0-52.763-42.927-95.69-95.69-95.69z m40.047 627.66c0 22.088-17.959 40.047-40.047 40.047H162.551c-22.088 0-40.047-17.959-40.047-40.047v-531.97c0-22.09 17.959-40.049 40.047-40.049h698.897c22.088 0 40.047 17.96 40.047 40.048v531.971z" p-id="5048"></path><path d="M288.75 485.605v55.642h55.643v-55.642h-13.91zM483.69 485.605h55.642v55.642H483.69v-55.642zM483.69 652.695h55.642v55.643H483.69v-55.643zM288.75 652.695h55.643v55.643h-55.642v-55.643zM678.41 484.736h55.642v55.642H678.41v-55.642zM678.572 652.804h55.643v55.642h-55.643v-55.642z" p-id="5049"></path></svg>