<?xml version="1.0" standalone="no"?><!DOCTYPE svg PUBLIC "-//W3C//DTD SVG 1.1//EN" "http://www.w3.org/Graphics/SVG/1.1/DTD/svg11.dtd"><svg t="1677589829499" class="icon" viewBox="0 0 1024 1024" version="1.1" xmlns="http://www.w3.org/2000/svg" p-id="5930" xmlns:xlink="http://www.w3.org/1999/xlink" width="32" height="32"><path d="M512.005757 0C229.243076 0 0.011515 229.231562 0.011515 511.994243S229.231562 1023.988485 512.005757 1023.988485s511.994243-229.220047 511.994243-511.994242S794.768438 0 512.005757 0z m264.431526 502.805636c-20.449832 102.375819-103.204867 183.150353-208.413264 203.807446 0.115145 1.635065 0.241805 3.454363 0.241805 5.158516v103.435158h36.777457a26.690715 26.690715 0 0 1 23.835108 14.324094l26.621628 51.654249a25.228368 25.228368 0 0 1-1.232056 25.15928 26.725259 26.725259 0 0 1-22.626081 12.205418h-233.514973a27.001608 27.001608 0 0 1-22.626081-12.205418 25.228368 25.228368 0 0 1-1.209027-25.124737l26.621628-51.654249a26.70223 26.70223 0 0 1 23.835108-14.324094h36.777457v-103.49273c0-1.761725 0.12666-3.454363 0.241806-5.158516-105.254456-20.668608-188.021005-101.431627-208.413265-203.807446-48.361089-9.741305-84.816138-51.423958-84.816138-101.189822 0-48.130798 34.002451-88.661996 79.968515-100.176541v-29.062711c0-42.845622 35.810235-77.596519 79.968515-77.596519h372.852481c44.15828 0 79.968515 34.750897 79.968515 77.596519v29.120284c45.977578 11.514545 79.968515 52.0112 79.968515 100.176541 0.011515 49.869494-36.408991 91.402458-84.827653 101.155278z" fill="" p-id="5931"></path><path d="M631.51522 411.944361l-65.701994 0.345437a16.339139 16.339139 0 0 1-15.602208-11.030934l-19.966221-60.693167a16.304596 16.304596 0 0 0-15.487063-11.030934 16.120363 16.120363 0 0 0-15.487063 11.030934l-19.908649 60.693167a16.339139 16.339139 0 0 1-15.602208 11.030934l-65.701994-0.345437a16.247023 16.247023 0 0 0-15.602208 10.915789 15.625238 15.625238 0 0 0 5.92999 17.732399l53.358402 37.21501a15.452519 15.452519 0 0 1 5.92999 17.847544l-20.726181 60.578022a15.441005 15.441005 0 0 0 5.929991 17.720884 16.94941 16.94941 0 0 0 19.240805 0l52.966907-37.802251a16.557916 16.557916 0 0 1 19.240804 0l52.966907 37.802251a16.546401 16.546401 0 0 0 19.22929 0 15.68281 15.68281 0 0 0 5.929991-17.720884l-20.726181-60.578022a15.671296 15.671296 0 0 1 5.929991-17.847544l53.358401-37.21501a15.521607 15.521607 0 0 0 6.045136-17.732399 16.247023 16.247023 0 0 0-15.544635-10.915789z" fill="" p-id="5932"></path></svg>