<?xml version="1.0" standalone="no"?><!DOCTYPE svg PUBLIC "-//W3C//DTD SVG 1.1//EN" "http://www.w3.org/Graphics/SVG/1.1/DTD/svg11.dtd"><svg t="1677589726207" class="icon" viewBox="0 0 1024 1024" version="1.1" xmlns="http://www.w3.org/2000/svg" p-id="2765" xmlns:xlink="http://www.w3.org/1999/xlink" width="32" height="32"><path d="M512 486.4c-12.8 0-32 0-44.8-6.4L57.6 364.8C19.2 352 0 320 0 288s19.2-64 51.2-76.8l416-115.2c25.6-6.4 64-12.8 89.6 0l409.6 115.2C1004.8 224 1024 256 1024 288s-19.2 64-51.2 76.8L556.8 480C544 486.4 524.8 486.4 512 486.4z" fill="#3D3D3D" p-id="2766"></path><path d="M723.2 864 300.8 864c-76.8 0-140.8-64-140.8-140.8L160 480c0-12.8 6.4-19.2 12.8-25.6C179.2 448 192 448 198.4 448l307.2 89.6c12.8 6.4 25.6 6.4 38.4 0L819.2 448c12.8 0 19.2 0 25.6 6.4 6.4 6.4 12.8 12.8 12.8 25.6l0 243.2C864 800 800 864 723.2 864z" fill="#3D3D3D" p-id="2767"></path><path d="M960 832c-19.2 0-32-12.8-32-32l0-384C928 396.8 940.8 384 960 384s32 12.8 32 32l0 384C992 819.2 979.2 832 960 832z" fill="#3D3D3D" p-id="2768"></path><path d="M960 908.8m-51.2 0a0.8 0.8 0 1 0 102.4 0 0.8 0.8 0 1 0-102.4 0Z" fill="#3D3D3D" p-id="2769"></path></svg>