<?xml version="1.0" standalone="no"?><!DOCTYPE svg PUBLIC "-//W3C//DTD SVG 1.1//EN" "http://www.w3.org/Graphics/SVG/1.1/DTD/svg11.dtd"><svg t="1695261138035" class="icon" viewBox="0 0 1024 1024" version="1.1" xmlns="http://www.w3.org/2000/svg" p-id="8215" xmlns:xlink="http://www.w3.org/1999/xlink" width="16" height="16"><path d="M256 68.7104c16.5376 0 33.024 2.56 48.7424 7.5776l277.3504 88.7808A160 160 0 0 1 693.3504 317.44v146.944l87.0912-55.4496a96 96 0 0 1 129.8944 25.4976l2.6624 3.9424c9.7792 15.36 15.0016 33.28 15.0016 51.5584V896h21.3504a32 32 0 0 1 0 64H74.6496a32 32 0 1 1 0-64h21.3504V228.7104a160 160 0 0 1 154.8288-159.9488L256 68.7104z m0 64c-53.0432 0-96 43.008-96 96V896h469.3504V317.44c0-40.0384-24.8832-75.8784-62.4128-89.9072l-4.352-1.536L285.184 137.2672A96 96 0 0 0 256 132.608z m602.9824 340.0192a32 32 0 0 0-44.1344-9.7792l-121.4976 77.312V896h170.6496V489.9328a32 32 0 0 0-3.2256-14.0288l-1.792-3.1744zM288 533.3504c17.664 0 32 14.336 32 32v106.6496a32 32 0 1 1-64 0v-106.6496c0-17.7152 14.336-32 32-32z m0-256c17.664 0 32 14.336 32 32v106.6496a32 32 0 1 1-64 0V309.3504c0-17.7152 14.336-32 32-32z" fill="#000000" p-id="8216"></path></svg>