<?xml version="1.0" standalone="no"?><!DOCTYPE svg PUBLIC "-//W3C//DTD SVG 1.1//EN" "http://www.w3.org/Graphics/SVG/1.1/DTD/svg11.dtd"><svg t="1677569064586" class="icon" viewBox="0 0 1024 1024" version="1.1" xmlns="http://www.w3.org/2000/svg" p-id="7092" xmlns:xlink="http://www.w3.org/1999/xlink" width="32" height="32"><path d="M710.157617 941.761997c39.285748 0 74.493621-6.92369 104.760972-20.530592 93.217055-41.795918 119.615285-80.041988 125.323287-104.809067 4.9088-20.818141-2.430352-42.771129-22.36845-67.026556-16.532535-20.018939-102.026698-119.871111-167.342286-120.92614-36.759205 0.87902-50.941206 14.821567-68.865437 32.441876-11.67183 11.464099-24.815175 24.38334-43.442418 32.154327-15.653515 6.460132-33.449833 12.423961-57.208956 12.423961l-2.302439 0c-119.66338-1.886977-258.304997-140.513244-260.143878-260.175601-0.415462-24.846898 5.708002-43.314505 12.375865-59.527768 7.770987-18.627243 20.690228-31.770588 32.106232-43.346227 17.7165-18.004049 31.610952-32.202423 32.489972-68.081585-1.055029-66.147536-100.860129-151.688771-120.829949-168.142511-24.718985-20.386306-46.128597-27.357068-67.122747-22.449291-24.75173 5.756097-62.997799 32.234145-104.792695 125.323287-14.230096 31.69077-21.122063 68.705801-20.449751 110.213147 5.244444 332.079234 290.283316 617.118106 622.36255 622.409622L710.157617 941.761997 710.157617 941.761997zM750.706125 671.448502c34.664497 0.543376 100.68412 64.85203 133.973294 105.22453 10.744715 13.015432 15.365966 23.12058 13.766538 29.963429-0.847298 3.485381-10.457166 34.68087-101.115955 75.43711-24.718985 11.08036-54.05922 16.708544-87.173408 16.708544l-4.749164-0.048095c-304.161395-4.828982-575.209624-275.973402-580.118424-580.103074-0.543376-35.159778 5.068436-66.051345 16.693194-91.9062 40.724517-90.658789 71.951729-100.31573 75.389014-101.06786 5.531993-1.310855 12.759605-0.431835 29.963429 13.718443 40.372499 33.241079 104.681154 99.308797 105.22453 134.852314-0.463558 18.004049-4.573155 22.240537-20.098757 38.021965-12.8077 12.983709-30.267351 30.730908-41.219797 57.129138-8.058536 19.47454-16.196891 43.85788-15.653515 76.603679 2.222621 141.903917 160.53116 300.212456 302.483172 302.531268l2.942005 0c31.514761 0 55.898101-8.394181 73.614601-15.749706 26.446325-10.952446 44.161802-28.41312 57.129138-41.171702C727.570195 676.069753 731.774961 671.913083 750.706125 671.448502L750.706125 671.448502z" p-id="7093"></path></svg>