<?xml version="1.0" standalone="no"?><!DOCTYPE svg PUBLIC "-//W3C//DTD SVG 1.1//EN" "http://www.w3.org/Graphics/SVG/1.1/DTD/svg11.dtd"><svg t="1695261799917" class="icon" viewBox="0 0 1024 1024" version="1.1" xmlns="http://www.w3.org/2000/svg" p-id="19390" xmlns:xlink="http://www.w3.org/1999/xlink" width="16" height="16"><path d="M851.331405 1008.300436c-5.547343 0-10.909467-1.172709-15.939017-3.487428-56.367799-25.927509-227.447199-73.909313-323.019905-74.101695-0.127913-0.005117-0.559748-0.00614-0.559748-0.00614l-0.181125 0.00614c-95.586009 0.192382-266.655176 48.174186-323.023998 74.101695-5.02955 2.313695-10.393721 3.487428-15.947204 3.487428-6.814196 0-13.515828-1.827625-19.378349-5.28333-10.252505-6.05081-17.184381-16.702404-18.539238-28.493961l-0.073678-0.64366L62.044078 696.309726c-6.349615-24.26873 4.750187-49.335638 26.993794-60.95835 17.953907-9.365298 47.050596-23.720238 83.684958-38.905078 2.927679-1.212618 6.004761-1.827625 9.140171-1.827625 9.716292 0 18.398022 5.798053 22.11774 14.772448 2.446725 5.90243 2.448772 12.402471 0.004093 18.302855-2.443655 5.903453-7.04137 10.502192-12.94687 12.948917-33.899064 14.051017-60.773132 27.231201-77.348646 35.815717l-6.505158 3.368724 72.383564 276.648784 9.581216-3.718695c72.344678-28.083615 224.825488-69.702502 322.440713-69.883627 0.138146 0.00614 0.611937 0.008186 0.611937 0.008186l0.201591-0.00614c97.634668 0.186242 250.102175 41.800012 322.455039 69.88158l9.580193 3.718695 72.382541-276.646738-6.505158-3.369747c-16.571421-8.582469-43.444465-21.7647-77.354785-35.815717-12.181437-5.050016-17.984606-19.070334-12.93459-31.251771 3.718695-8.974395 12.399401-14.772448 22.113647-14.772448 3.13541 0 6.210445 0.61603 9.140171 1.829671 36.69269 15.20326 65.76175 29.54899 83.685981 38.905078 22.24156 11.616572 33.340339 36.683481 26.989701 60.957327l-72.625064 277.568736-0.073678 0.64366c-1.355881 11.791557-8.28878 22.443152-18.546402 28.496008C864.851327 1006.473835 858.150718 1008.300436 851.331405 1008.300436zM678.727279 669.399843c-11.192923 0-22.384823-2.772136-32.365128-8.015557l-134.839011-70.889537-134.847198 70.889537c-9.978259 5.244444-21.168112 8.015557-32.358989 8.015557-20.534685 0-39.929408-9.035794-53.209876-24.789593-13.214976-15.676028-18.801205-36.284391-15.326057-56.539714l25.748431-150.144602L192.450127 331.592141c-19.10001-18.6078-25.843598-45.920866-17.602913-71.281463 8.241708-25.363667 29.753651-43.499723 56.141648-47.332005l150.751423-21.908986L449.161836 54.463426c11.803837-23.908526 35.70213-38.763862 62.361303-38.763862 0.002047 0-0.002047 0 0 0 26.65815 0 50.555419 14.855336 62.36335 38.770002l67.419506 136.605238 150.750399 21.903869c26.39209 3.838422 47.904033 21.974477 56.142671 47.332005 8.241708 25.359574 1.496074 52.67264-17.60189 71.279417l-109.086487 106.34198 25.755594 150.144602c3.470031 20.262486-2.115174 40.869826-15.326057 56.538691C718.656687 660.366096 699.258894 669.399843 678.727279 669.399843zM511.516999 536.88169c0.555655 0 1.088798 0.13303 1.586125 0.39295l155.521053 81.763189c3.13541 1.64957 6.627954 2.524496 10.097986 2.524496 6.40078 0 12.465916-2.836605 16.637935-7.78429 4.104481-4.867868 5.837962-11.288091 4.753257-17.613146l-29.701462-173.194574c-0.189312-1.095961 0.171915-2.206248 0.966001-2.979868l125.83187-122.654504c5.960759-5.813403 8.061606-14.340613 5.486968-22.255887-2.572592-7.912204-9.28855-13.570063-17.522072-14.763239l-173.881213-25.266453c-1.099031-0.160659-2.050706-0.850367-2.541893-1.846044L530.987447 75.635631c-3.692089-7.465019-11.148921-12.097526-19.463284-12.097526-8.325619 0-15.783475 4.6366-19.464307 12.099572L414.293701 233.204319c-0.491187 0.99363-1.442862 1.686409-2.543939 1.847068L237.861386 260.317841c-8.229428 1.193175-14.94334 6.850012-17.516956 14.762215-2.574638 7.915273-0.471744 16.442484 5.485945 22.25384L351.659175 419.9884c0.798179 0.776689 1.160429 1.889023 0.972141 2.978844L322.92883 596.163865c-1.084705 6.325056 0.64673 12.745279 4.751211 17.613146 4.172019 4.948709 10.235109 7.785314 16.635889 7.785314 3.517103 0 6.915503-0.849344 10.103102-2.52552l155.528216-81.766258C510.427178 537.01779 510.972601 536.88169 511.516999 536.88169z" fill="#000000" p-id="19391"></path></svg>