<?xml version="1.0" standalone="no"?><!DOCTYPE svg PUBLIC "-//W3C//DTD SVG 1.1//EN" "http://www.w3.org/Graphics/SVG/1.1/DTD/svg11.dtd"><svg t="1681370416546" class="icon" viewBox="0 0 1024 1024" version="1.1" xmlns="http://www.w3.org/2000/svg" p-id="4049" xmlns:xlink="http://www.w3.org/1999/xlink" width="32" height="32"><path d="M810.24049268 948.20155508c-4.87559443 0-9.58839873-1.03070127-14.00890166-3.06512227-49.54201084-22.78784971-199.90476474-64.95935713-283.90421339-65.12844287-0.11242354-0.00449737-0.49196602-0.00539648-0.49196601-0.00539648l-0.15919189 0.00539648c-84.01114073 0.16908575-234.36490078 42.34059317-283.90781075 65.12844287-4.42050293 2.03352099-9.13510635 3.06512227-14.01609726 3.06512227-5.98903945 0-11.8791457-1.60631104-17.03175205-4.64355175-9.01099073-5.31809473-15.10345987-14.67984727-16.29425215-25.04352042l-0.06475606-0.56571679L116.53092793 673.99097012c-5.58071631-21.32993848 4.17496904-43.36140059 23.72501426-53.57667481 15.77980107-8.23121894 41.35306289-20.84786542 73.55123261-34.1939162 2.57315537-1.06577754 5.27762198-1.60631104 8.03335343-1.60631104 8.53970977 0 16.17013652 5.09594502 19.43941992 12.98359687 2.1504419 5.18768262 2.15224102 10.90060928 0.00359735 16.08649365-2.14774365 5.18858174-6.1887041 9.23044219-11.37908495 11.38088409-29.79409922 12.34952666-53.41388555 23.93367276-67.98220841 31.47865752l-5.71742401 2.96079258 63.61836679 243.1483453 8.42099063-3.26838427c63.58418965-24.68286474 197.60052656-61.26196464 283.39515791-61.42115654 0.12141738 0.00539648 0.53783526 0.00719473 0.53783526 0.00719472l0.17717958-0.00539649c85.81171992 0.16368925 219.81636474 36.7382918 283.40774912 61.41935743l8.42009151 3.26838428 63.61746768-243.14654708-5.71742403-2.96169169c-14.56472549-7.54318565-38.18361182-19.12913086-67.98760401-31.47865752-10.70634112-4.43849063-15.80678262-16.76103574-11.36829199-27.46737686 3.26838427-7.88765185 10.89791104-12.98359687 19.43582256-12.98359687 2.75573144 0 5.45839893 0.54143261 8.03335342 1.60810927 32.24943457 13.36224023 57.79841309 25.97079199 73.55213174 34.19391622 19.54824609 10.20987773 29.30303232 32.24134073 23.72141689 53.57577568l-63.83062265 243.95689687-0.06475606 0.5657168c-1.19169229 10.36367315-7.28506055 19.72542656-16.30054863 25.04531953C822.12323662 946.59614404 816.23402949 948.20155508 810.24049268 948.20155508zM658.53764756 650.33970576c-9.83752998 0-19.67416084-2.43644766-28.44591329-7.04492314l-118.5108495-62.30525713-118.51804512 62.30525713c-8.7699542 4.60937461-18.60478594 7.04492315-28.44051768 7.04492314-18.04806299 0-35.09420625-7.94161582-46.76649257-21.78772823-11.614725-13.77775898-16.52449658-31.89057803-13.47016729-49.693108l22.63045693-131.96302911L231.14561943 353.43840518c-16.78711817-16.35451172-22.71409981-40.36013613-15.47131025-62.64972335 7.24368867-22.29228545 26.15066982-38.23217842 49.34324532-41.60039501l132.49636787-19.25594473L456.77114492 109.86824551c10.37446612-21.01335292 31.37882519-34.06980059 54.80973896-34.06980059 0.00179912 0-0.00179912 0 0 0 23.43001465 0 44.43347373 13.05644766 54.8115381 34.07519707l59.25542519 120.06319746 132.49546786 19.25144737c23.19617285 3.37361308 42.10315401 19.31350518 49.34414445 41.60039501 7.24368867 22.28868808 1.31490878 46.2943125-15.47041114 62.6479251l-95.87679521 93.46463086 22.63675253 131.96302911c3.04983193 17.80882558-1.85903965 35.92074551-13.47016728 49.69220888C693.63185381 642.39988906 676.5830123 650.33970576 658.53764756 650.33970576zM511.5754874 533.86867285c0.48836865 0 0.95695136 0.1169209 1.39405518 0.34536621l136.68842549 71.86217784c2.75573144 1.44981738 5.82535019 2.21879531 8.875183 2.21879531 5.62568555 0 10.95637148-2.49310987 14.62318506-6.84166114 3.60745401-4.27839961 5.13102128-9.92117373 4.17766729-15.48030409l-26.10480059-152.22179356c-0.1663875-0.96324698 0.15109717-1.93908516 0.84902431-2.61902461l110.594417-107.80181016c5.23894834-5.10943623 7.08539589-12.6040544 4.82253047-19.56083818-2.26106719-6.95408555-8.16376465-11.92681318-15.40025859-12.97550303l-152.82528487-22.20684346c-0.96594521-0.1412042-1.80237833-0.74739287-2.23408565-1.6224996L528.68818584 128.47662881c-3.2450001-6.56105185-9.79885635-10.63259122-17.10640196-10.63259121-7.31743857 0-13.87219482 4.07513672-17.10730107 10.63438945L426.12532315 266.96473349c-0.43170732 0.87330762-1.26814042 1.48219541-2.2358839 1.62339961L271.05785879 290.79497744c-7.2328957 1.04868896-13.13379492 6.02051836-15.39576212 12.97460303-2.26286543 6.95678291-0.41461875 14.45140195 4.82163135 19.55903906L371.07544677 431.13042969c0.70152451 0.68263682 1.0199083 1.66027412 0.85442081 2.61812461L345.824167 585.97214698c-0.95335401 5.55913125 0.56841504 11.20190537 4.17586904 15.48030409 3.66681357 4.34945127 8.99570127 6.84256113 14.62138682 6.84256114 3.09120381 0 6.07807881-0.74649375 8.87967948-2.21969531l136.6947211-71.8648752C510.61763691 533.988292 511.0970126 533.86867285 511.5754874 533.86867285z" p-id="4050"></path></svg>