<?xml version="1.0" standalone="no"?><!DOCTYPE svg PUBLIC "-//W3C//DTD SVG 1.1//EN" "http://www.w3.org/Graphics/SVG/1.1/DTD/svg11.dtd"><svg t="1677590260704" class="icon" viewBox="0 0 1024 1024" version="1.1" xmlns="http://www.w3.org/2000/svg" p-id="8158" xmlns:xlink="http://www.w3.org/1999/xlink" width="32" height="32"><path d="M218.56 509.568c0-104.768 55.808-201.6 146.432-253.952a292.416 292.416 0 0 1 292.8 0A293.312 293.312 0 0 1 804.16 509.568c0 104.704-55.808 201.536-146.368 253.952a292.416 292.416 0 0 1-292.8 0A293.312 293.312 0 0 1 218.56 509.568z m347.712 440.704a36.864 36.864 0 0 1 0 73.728h-109.76a36.8 36.8 0 1 1 0-73.728h109.76zM511.36 182.976a36.8 36.8 0 0 1-36.8-36.864V36.16a36.864 36.864 0 0 1 73.6 0v109.952a36.864 36.864 0 0 1-36.8 36.864z m-284.032 96.512l-77.696-77.76a36.928 36.928 0 0 1 52.032-52.16l77.696 77.824a36.928 36.928 0 0 1-52.032 52.096z m-80.704 195.648a36.864 36.864 0 0 1 0 73.728H36.864a36.8 36.8 0 0 1 0-73.728h109.824z m839.808-0.64a36.8 36.8 0 1 1 0 73.728h-109.76a36.8 36.8 0 1 1 0-73.728h109.76z m-190.848-195.52a36.8 36.8 0 0 1-52.096-52.16l77.696-77.696a36.8 36.8 0 1 1 52.096 52.16l-77.632 77.696zM630.848 839.552a36.8 36.8 0 1 1 0 73.728h-239.04a36.8 36.8 0 1 1 0-73.728h239.104z" p-id="8159" fill="#2c2c2c"></path></svg>