<?xml version="1.0" standalone="no"?><!DOCTYPE svg PUBLIC "-//W3C//DTD SVG 1.1//EN" "http://www.w3.org/Graphics/SVG/1.1/DTD/svg11.dtd"><svg t="1695261438749" class="icon" viewBox="0 0 1024 1024" version="1.1" xmlns="http://www.w3.org/2000/svg" p-id="12830" xmlns:xlink="http://www.w3.org/1999/xlink" width="16" height="16"><path d="M541.768 71.715l0.558 0.318 336.665 194.294A60.01 60.01 0 0 1 909 317.65v388.49a60 60 0 0 1-29.454 51.643l-0.555 0.324-336.665 194.293a60 60 0 0 1-59.444 0.307l-0.558-0.318L145.99 758.112A60.01 60.01 0 0 1 116 706.799V318.278a60 60 0 0 1 29.434-51.631l0.555-0.324L482.324 72.045a60 60 0 0 1 59.444-0.33zM303.312 650.064l-100.239 57.873L497.5 878.008v-67.676L303.312 650.064z m426.625 4.763L527.5 811.424v66.403l294.403-169.903-91.966-53.097zM527.5 537.95v197.617l146.285-113.159L527.5 537.95z m-30 0l-138.725 80.092L497.5 732.536V537.95zM837 341.939l-56.367 32.544-35.544 254.451L837 681.999v-340.06z m-649.001 0v340.06l97.093-56.057-39.958-251.016-57.135-32.987z m526.737 70.589L542.5 511.969l146.527 84.598 25.709-184.039z m-402.697 1.026l28.695 180.263 141.765-81.848-170.46-98.415z m185.461-97.07l-169.563 71.607L497.5 485.988V316.484z m30-0.024v169.528l169.691-97.971L527.5 316.46z m-30-170.034L203.502 316.249l59.282 34.226L497.5 251.353V146.426z m30 0.181v104.736l234.87 99.043 59.103-34.124L527.5 146.607z" fill="#000000" p-id="12831"></path></svg>