<?xml version="1.0" standalone="no"?><!DOCTYPE svg PUBLIC "-//W3C//DTD SVG 1.1//EN" "http://www.w3.org/Graphics/SVG/1.1/DTD/svg11.dtd"><svg t="1678330692873" class="icon" viewBox="0 0 1024 1024" version="1.1" xmlns="http://www.w3.org/2000/svg" p-id="876" xmlns:xlink="http://www.w3.org/1999/xlink" width="32" height="32"><path d="M433.20299429 574.04438149l-127.94777873 9.27312555 0-60.21394402L70.86248938 809.04836316l186.03033546-34.06412003 3.07446609 189.07011603 265.13593807-323.46590656-15.80166651-12.94186723L433.20299429 574.04438149zM718.60373034 527.35081282l0 60.95860775-127.94850691-9.29010423-21.57099114 15.19041225-67.78355955 51.07374246 251.73077743 334.02703296 10.77700563-188.80572438 184.49298105 41.65119969L718.60373034 527.35081282zM792.99830306 421.81571379l-93.68427391 46.84225772 0 93.6842739-109.68362856-7.94995249-77.66793937 54.69251781-77.68491926-54.69251781-109.68362856 7.94995249 0-93.6842739-93.65152776-46.84225772 46.84225772-93.6680222-46.84225772-95.55199651 93.65152776-44.95731249L324.5939134 93.97035918l109.68362856 7.96620421 77.68491926-54.72599093 77.66793937 54.70949649 109.68362856-7.94995249 0 93.6680222 93.68427391 46.74256531-46.84225772 93.76674489L792.99830306 421.81571379 792.99830306 421.81571379zM725.87693625 399.10541085l-35.62136462-71.17214334 35.62136462-71.2553425-71.20731554-35.51997435L654.66962071 149.98629277l-83.33538827 6.03250385-59.02466586-41.56945689-59.00720052 41.56945689-83.37056048-6.03250385 0 71.17165909-71.17214333 34.16478334 35.61942403 72.61053353-35.61942403 71.17214333 71.17214333 35.60244535 0 71.17287151 83.37056048-6.04948253 59.00720052 41.5694569 59.02466586-41.5694569 83.33538827 6.04948253 0-71.17287151L725.87693625 399.10541085 725.87693625 399.10541085zM658.93482132 377.03959378l-48.89165945 24.46280961 0 48.89165946-57.25663445-4.14901377-40.54390708 28.5616131-40.5441498-28.5616131-57.25517931 4.14901377 0-48.89165946-48.89165945-24.46280961 24.44582972-48.89190219-24.44582972-49.86627201 48.89165945-23.45448121 0-48.90815389 57.25517931 4.14828681 40.5441498-28.54511867 40.54390708 28.54511867 57.25663445-4.14828681 0 48.90815389 48.89165945 24.36335874-24.44655791 48.95715175L658.93482132 377.03959378z" fill="#262535" p-id="877"></path></svg>