<?xml version="1.0" standalone="no"?><!DOCTYPE svg PUBLIC "-//W3C//DTD SVG 1.1//EN" "http://www.w3.org/Graphics/SVG/1.1/DTD/svg11.dtd"><svg t="1701861777573" class="icon" viewBox="0 0 1024 1024" version="1.1" xmlns="http://www.w3.org/2000/svg" p-id="12291" xmlns:xlink="http://www.w3.org/1999/xlink" width="16" height="16"><path d="M590.769231 846.769231V649.846154a39.384615 39.384615 0 0 0-39.384616-39.384616h-78.76923a39.384615 39.384615 0 0 0-39.384616 39.384616v196.923077h-157.538461a78.769231 78.769231 0 0 1-78.769231-78.769231V457.353846l-53.267692 45.272616a39.384615 39.384615 0 1 1-51.003077-60.022154l393.846154-334.769231a39.384615 39.384615 0 0 1 51.003076 0l393.846154 334.769231a39.384615 39.384615 0 1 1-51.003077 60.022154L827.076923 457.334154V768a78.769231 78.769231 0 0 1-78.769231 78.769231h-157.538461z" fill="#000000" p-id="12292"></path></svg>