<?xml version="1.0" standalone="no"?><!DOCTYPE svg PUBLIC "-//W3C//DTD SVG 1.1//EN" "http://www.w3.org/Graphics/SVG/1.1/DTD/svg11.dtd"><svg t="1701864002521" class="icon" viewBox="0 0 1024 1024" version="1.1" xmlns="http://www.w3.org/2000/svg" p-id="28348" xmlns:xlink="http://www.w3.org/1999/xlink" width="16" height="16"><path d="M150.2 960.2l-6.6-19.8c-0.7-2.2-17.8-53.9-32.6-113.5-8.8-35.3-14.9-65.9-18.2-91-4.5-34.2-3.7-58.6 2.3-74.7 4-10.8 16.1-29.6 36.9-47 25.7-21.6 57.8-35 92.7-38.9 11-1.2 20.8 6.7 22 17.6 1.2 11-6.7 20.8-17.6 22-63.9 7-93.5 51.7-96.6 60.2-3.3 8.7-8.1 40.1 17.2 142.1 9.1 36.4 19.2 70.5 25.5 90.9C231.1 888 391.6 834 502 834c111.2 0 273.2 54.8 328 74.5 8.4-22.1 23-61.7 36-103.5 35.4-114.2 26.5-139.9 24.3-144.1-4.1-6.4-42.8-41.3-118.8-46-11-0.7-19.4-10.1-18.7-21.1 0.7-11 10.1-19.4 21.1-18.7 47.3 2.9 82.1 16.4 103 27.2 22.8 11.8 41.2 26.8 48.1 39 9.3 16.5 17.2 52.7-21 175.7-20 64.6-43.1 122-44.1 124.4l-7.3 18.2-18.3-7c-2-0.6-207-78.6-332.3-78.6s-330.3 78-332.3 78.8l-19.5 7.4z m656.1-683.7c2.2 6.4 4.1 12.9 5.9 19.4L673.6 433.1l23.8 195.2c-5.4 4.1-11 7.9-16.7 11.7l-173.2-89.4-178.3 82.9c-5.5-3.9-11-8-16.2-12.3l31.5-192.4-134-144c2-6.5 4.2-12.9 6.6-19.2l192.8-29.5 95.4-171.8c1.5 0 2.9-0.1 4.4-0.1 5.3 0 10.7 0.1 16 0.4l87.6 174.2 193 37.7z" fill="#000000" p-id="28349"></path></svg>