<?xml version="1.0" standalone="no"?><!DOCTYPE svg PUBLIC "-//W3C//DTD SVG 1.1//EN" "http://www.w3.org/Graphics/SVG/1.1/DTD/svg11.dtd"><svg t="1701863209383" class="icon" viewBox="0 0 1024 1024" version="1.1" xmlns="http://www.w3.org/2000/svg" p-id="13638" xmlns:xlink="http://www.w3.org/1999/xlink" width="16" height="16"><path d="M584.533333 277.333333l256 0-298.666667-256 0 213.333333C541.866667 260.266667 558.933333 277.333333 584.533333 277.333333z" p-id="13639" fill="#000000"></path><path d="M601.6 913.066667 597.333333 913.066667 563.2 1002.666667 652.8 977.066667 657.066667 977.066667 883.2 780.8 823.466667 716.8Z" p-id="13640" fill="#000000"></path><path d="M840.533333 320l-298.666667 0c-25.6 0-42.666667-17.066667-42.666667-42.666667l0-256-341.333333 0c-46.933333 0-85.333333 38.4-85.333333 85.333333l0 810.666667c0 46.933333 38.4 85.333333 85.333333 85.333333l247.466667 0 435.2-430.933333L840.533333 320zM563.2 576l-341.333333 0c-12.8 0-21.333333-8.533333-21.333333-21.333333 0-12.8 8.533333-21.333333 21.333333-21.333333l341.333333 0c12.8 0 21.333333 8.533333 21.333333 21.333333C584.533333 567.466667 571.733333 576 563.2 576zM691.2 448l-469.333333 0c-12.8 0-21.333333-8.533333-21.333333-21.333333 0-12.8 8.533333-21.333333 21.333333-21.333333l469.333333 0c12.8 0 21.333333 8.533333 21.333333 21.333333C712.533333 439.466667 699.733333 448 691.2 448z" p-id="13641" fill="#000000"></path><path d="M968.533333 686.933333l-34.133333-42.666667c-4.266667-4.266667-8.533333-4.266667-12.8 0l-42.666667 34.133333c-4.266667 4.266667-4.266667 8.533333 0 12.8l34.133333 42.666667c4.266667 4.266667 8.533333 4.266667 12.8 0l42.666667-34.133333C972.8 699.733333 972.8 691.2 968.533333 686.933333z" p-id="13642" fill="#000000"></path></svg>