<?xml version="1.0" standalone="no"?><!DOCTYPE svg PUBLIC "-//W3C//DTD SVG 1.1//EN" "http://www.w3.org/Graphics/SVG/1.1/DTD/svg11.dtd"><svg t="1701863367191" class="icon" viewBox="0 0 1024 1024" version="1.1" xmlns="http://www.w3.org/2000/svg" p-id="15876" xmlns:xlink="http://www.w3.org/1999/xlink" width="16" height="16"><path d="M233.472 508.928c0-99.84 53.248-192 139.264-241.664s192-49.664 278.528 0C737.28 317.44 790.016 409.6 790.016 508.928c0 99.84-53.248 191.488-139.264 241.664-86.016 49.664-192 49.664-278.528 0-86.016-49.664-138.752-141.824-138.752-241.664zM563.712 928.256c19.456 0 34.816 15.872 34.816 34.816 0 19.456-15.872 34.816-34.816 34.816H459.776c-19.456 0-34.816-15.872-34.816-34.816 0-19.456 15.872-34.816 34.816-34.816h103.936zM511.488 198.144c-9.216 0-18.432-3.584-24.576-10.24-6.656-6.656-10.24-15.36-10.24-24.576V58.368c1.024-18.432 16.384-32.768 34.816-32.768s33.792 14.336 34.816 32.768v104.448c0.512 19.968-15.36 35.328-34.816 35.328zM241.664 290.304L167.936 216.064c-12.288-13.824-11.264-34.816 1.536-48.128s33.792-13.824 47.616-1.536L291.328 240.64c11.776 13.824 11.264 34.816-2.048 47.616-12.8 12.8-33.792 13.824-47.616 2.048zM200.192 511.488c0 19.456-15.872 34.816-34.816 34.816H60.416c-19.456 0-34.816-15.872-34.816-34.816 0-19.456 15.872-34.816 34.816-34.816h104.448c19.456-0.512 35.328 15.36 35.328 34.816zM963.584 475.648c19.456 0 34.816 15.872 34.816 34.816 0 19.456-15.872 34.816-34.816 34.816h-104.448c-19.456 0-34.816-15.872-34.816-34.816 0-19.456 15.872-34.816 34.816-34.816h104.448zM781.824 289.792c-13.824 13.824-35.84 13.824-49.664 0s-13.824-35.84 0-49.664l73.728-73.728c8.704-8.704 22.016-12.288 33.792-9.216s21.504 12.8 24.576 24.576c3.072 12.288 0 25.088-9.216 33.792l-73.216 74.24zM625.152 822.784c19.456 0 34.816 15.872 34.816 34.816s-15.872 34.816-34.816 34.816H397.824c-19.456 0-34.816-15.872-34.816-34.816s15.872-34.816 34.816-34.816h227.328z" fill="#000000" p-id="15877"></path></svg>