<?xml version="1.0" standalone="no"?><!DOCTYPE svg PUBLIC "-//W3C//DTD SVG 1.1//EN" "http://www.w3.org/Graphics/SVG/1.1/DTD/svg11.dtd"><svg t="1701863081258" class="icon" viewBox="0 0 1024 1024" version="1.1" xmlns="http://www.w3.org/2000/svg" p-id="8778" xmlns:xlink="http://www.w3.org/1999/xlink" width="16" height="16"><path d="M112 600a8 8 0 0 0 8 8h208v78c0 10.93 8.769 19.813 19.656 19.997L348 706c11.046 0 20-8.954 20-20v-78h288v78c0 10.93 8.769 19.813 19.656 19.997L676 706c11.046 0 20-8.954 20-20v-78h208a8 8 0 0 0 7.996-7.75L912 600v212c0 55.228-44.772 100-100 100H212c-55.228 0-100-44.772-100-100z m490-418H422v78h180v-78zM112 372c0-55.228 44.772-100 100-100h140.033a61.098 61.098 0 0 1-0.033-2v-98c0-33.137 26.863-60 60-60h200c33.137 0 60 26.863 60 60v98c0 0.67-0.011 1.336-0.033 2H812c55.228 0 100 44.772 100 100v204a8 8 0 0 0-8-8H696v-78c0-10.93-8.769-19.813-19.656-19.997L676 470c-11.046 0-20 8.954-20 20v78H368v-78c0-10.93-8.769-19.813-19.656-19.997L348 470c-11.046 0-20 8.954-20 20v78H120a8 8 0 0 0-7.996 7.75L112 576V372z" fill="#000000" p-id="8779"></path></svg>